<svg width="287" height="46" viewBox="0 0 287 46" fill="none" xmlns="http://www.w3.org/2000/svg">
<line x1="153.295" y1="1.55914" x2="153.295" y2="45.2149" stroke="#023977"/>
<path d="M268.712 1.99889V18.6212C268.712 19.7784 267.767 20.6201 266.717 20.6201C265.667 20.6201 264.722 19.6732 264.722 18.6212V1.99889C264.722 0.841636 265.667 0 266.717 0C267.767 0 268.712 0.841636 268.712 1.99889Z" fill="#414141"/>
<path d="M261.782 1.99898C261.782 3.15623 260.836 3.99787 259.786 3.99787H256.216V18.6213C256.216 19.7785 255.27 20.6202 254.22 20.6202C253.17 20.6202 252.225 19.7785 252.225 18.6213V4.10307H248.654C247.499 4.10307 246.659 3.15623 246.659 2.10419C246.659 0.946939 247.604 0.105303 248.654 0.105303H259.681C260.836 9.84163e-05 261.782 0.946939 261.782 1.99898Z" fill="#414141"/>
<path d="M237.627 1.99898C237.627 3.15623 236.682 3.99787 235.632 3.99787H232.061V18.6213C232.061 19.7785 231.116 20.6202 230.066 20.6202C229.016 20.6202 228.071 19.7785 228.071 18.6213V4.10307H224.5C223.345 4.10307 222.505 3.15623 222.505 2.10419C222.505 0.946939 223.45 0.105303 224.5 0.105303H235.527C236.682 9.84163e-05 237.627 0.946939 237.627 1.99898Z" fill="#414141"/>
<path d="M201.396 1.99889V18.6212C201.396 19.7784 200.45 20.6201 199.4 20.6201C198.35 20.6201 197.405 19.6732 197.405 18.6212V12.3089H190.369V18.6212C190.369 19.7784 189.423 20.6201 188.373 20.6201C187.323 20.6201 186.378 19.6732 186.378 18.6212V1.99889C186.378 0.841636 187.323 0 188.373 0C189.423 0 190.369 0.94684 190.369 1.99889V8.31115H197.405V1.99889C197.405 0.841636 198.35 0 199.4 0C200.45 0 201.396 0.841636 201.396 1.99889Z" fill="#414141"/>
<path d="M219.564 7.57472C219.564 4.629 217.989 2.10409 215.573 0.841636C214.523 0.315614 213.368 0 212.002 0C210.742 0 209.482 0.315614 208.432 0.841636C206.016 2.10409 204.441 4.629 204.441 7.57472V18.6212C204.441 19.7784 205.386 20.6201 206.437 20.6201C207.592 20.6201 208.432 19.6732 208.432 18.6212V12.3089H215.468V18.6212C215.468 19.7784 216.413 20.6201 217.463 20.6201C218.619 20.6201 219.459 19.6732 219.459 18.6212C219.564 18.6212 219.564 8.20595 219.564 7.57472ZM215.468 7.67993V8.20595H208.537H208.432V7.67993V7.57472V7.46952C208.432 5.57584 210.007 3.99777 212.002 3.99777C213.893 3.99777 215.468 5.57584 215.573 7.46952C215.468 7.57472 215.468 7.57472 215.468 7.67993ZM217.989 12.3089C217.884 12.3089 217.884 12.3089 217.989 12.3089C217.884 12.3089 217.989 12.3089 217.989 12.3089Z" fill="#414141"/>
<path d="M183.333 7.68068V18.7272C183.333 19.8844 182.387 20.726 181.337 20.726C180.182 20.726 179.342 19.7792 179.342 18.7272V7.68068V7.57548V7.47027C179.342 5.57659 177.767 3.99852 175.771 3.99852C173.881 3.99852 172.306 5.57659 172.201 7.47027V7.57548V7.68068V18.6219C172.201 19.7792 171.255 20.6208 170.205 20.6208C169.05 20.6208 168.21 19.674 168.21 18.6219V7.68068C168.21 4.73495 169.89 2.21005 172.201 0.947593C173.251 0.42157 174.406 0.105957 175.771 0.105957C177.031 0.105957 178.292 0.42157 179.342 0.947593C181.652 2.10484 183.333 4.73495 183.333 7.68068Z" fill="#414141"/>
<path d="M258.211 23.3558C258.211 23.2506 258.106 23.0402 258.106 22.935C258.106 22.935 258.106 22.935 258.106 22.8298C258.001 22.6194 257.791 22.5142 257.581 22.5142C257.476 22.5142 257.476 22.5142 257.371 22.5142C257.266 22.5142 257.161 22.6194 257.161 22.7246L256.951 22.935C252.96 27.2484 248.129 29.7733 242.143 29.7733C236.157 29.7733 231.431 27.1432 227.335 22.935L227.125 22.7246C227.02 22.6194 227.02 22.5142 226.915 22.5142C226.81 22.5142 226.81 22.5142 226.705 22.5142C226.495 22.5142 226.285 22.7246 226.18 22.8298C226.18 22.8298 226.18 22.8298 226.18 22.935C226.075 23.0402 226.075 23.2506 226.075 23.3558C226.075 23.461 226.075 23.5662 226.075 23.5662C226.075 23.6714 226.075 23.7766 226.075 23.8818C226.075 23.987 226.18 24.1974 226.285 24.3026C226.495 24.6183 226.705 24.9339 227.02 25.2495C227.23 25.5651 227.545 25.8807 227.755 26.1963C228.281 26.8275 228.806 27.3536 229.436 27.8796C230.066 28.4056 230.696 28.9316 231.326 29.3525C233.637 31.0357 236.262 32.0878 239.097 32.5086C240.148 32.719 241.198 32.719 242.143 32.8242C243.193 32.8242 244.243 32.719 245.189 32.5086C248.024 32.0878 250.544 30.9305 252.96 29.3525C253.59 28.9316 254.22 28.4056 254.85 27.8796C255.48 27.3536 256.005 26.7223 256.531 26.1963C256.741 25.8807 257.056 25.5651 257.266 25.2495C257.476 24.9339 257.791 24.6183 258.001 24.3026C258.106 24.1974 258.211 23.987 258.211 23.8818C258.211 23.7766 258.211 23.6714 258.211 23.5662C258.211 23.461 258.211 23.3558 258.211 23.3558Z" fill="#414141"/>
<path d="M286.881 7.57472V18.6212C286.881 19.7784 285.936 20.6201 284.885 20.6201C283.73 20.6201 282.89 19.6732 282.89 18.6212V7.67993V7.57472V7.46952C282.89 5.57584 281.315 3.99777 279.319 3.99777C277.429 3.99777 275.854 5.57584 275.749 7.46952V7.57472V7.67993V18.6212C275.749 19.7784 274.804 20.6201 273.753 20.6201C272.598 20.6201 271.758 19.6732 271.758 18.6212V7.57472C271.758 4.629 273.438 2.10409 275.749 0.841636C276.799 0.315614 277.954 0 279.319 0C280.58 0 281.84 0.315614 282.89 0.841636C285.2 2.10409 286.881 4.7342 286.881 7.57472Z" fill="#414141"/>
<path d="M229.016 41.0301C229.121 41.0301 229.226 41.0301 229.331 41.1353C229.436 41.1353 229.541 41.2405 229.646 41.3457C229.751 41.4509 229.751 41.5561 229.856 41.6613C229.856 41.7665 229.961 41.8717 229.961 41.9769V43.9758C229.961 44.081 229.961 44.2914 229.856 44.3966C229.751 44.5018 229.751 44.6071 229.646 44.7123C229.121 45.1331 228.596 45.4487 228.071 45.6591C227.546 45.8695 226.915 45.9747 226.39 45.9747C225.97 45.9747 225.655 45.8695 225.235 45.7643C224.815 45.6591 224.5 45.5539 224.185 45.3435C223.87 45.1331 223.555 44.9227 223.24 44.607C222.925 44.2914 222.715 44.081 222.505 43.6602C222.295 43.3446 222.19 42.9238 222.085 42.6082C221.98 42.1873 221.875 41.8717 221.875 41.4509C221.875 41.0301 221.875 40.6093 221.98 40.2937C222.085 39.8729 222.19 39.5572 222.4 39.2416C222.61 38.926 222.82 38.6104 223.135 38.2948C223.45 37.9792 223.66 37.7688 224.08 37.5583C224.395 37.3479 224.815 37.2427 225.13 37.1375C225.55 37.0323 225.865 36.9271 226.285 36.9271C226.915 36.9271 227.546 37.0323 228.071 37.2427C228.596 37.4531 229.121 37.7688 229.541 38.2948C229.646 38.4 229.646 38.5052 229.751 38.6104C229.751 38.7156 229.856 38.8208 229.856 38.926C229.856 39.0312 229.856 39.1364 229.751 39.2416C229.751 39.3468 229.646 39.452 229.541 39.5572C229.436 39.6624 229.331 39.6624 229.226 39.7676C229.121 39.7676 229.016 39.8728 228.911 39.8728C228.806 39.8728 228.701 39.8729 228.596 39.7676C228.491 39.7676 228.386 39.6624 228.281 39.5572C227.966 39.2416 227.651 39.1364 227.335 38.926C227.02 38.8208 226.705 38.7156 226.285 38.7156C225.97 38.7156 225.55 38.8208 225.235 38.926C224.92 39.0312 224.605 39.2416 224.395 39.452C224.185 39.6624 223.975 39.9781 223.765 40.2937C223.66 40.6093 223.555 40.9249 223.555 41.3457C223.555 41.6613 223.66 42.0821 223.765 42.3978C223.87 42.7134 224.08 43.029 224.29 43.2394C224.5 43.4498 224.815 43.6602 225.13 43.8706C225.445 43.9758 225.865 44.081 226.18 44.081C226.495 44.081 226.81 44.081 227.02 43.9758C227.335 43.8706 227.546 43.7654 227.861 43.555V42.8186H227.125C227.02 42.8186 226.915 42.8186 226.81 42.7134C226.705 42.7134 226.6 42.6082 226.495 42.503C226.39 42.3978 226.39 42.2926 226.285 42.1873C226.285 42.0821 226.18 41.9769 226.18 41.8717C226.18 41.7665 226.18 41.6613 226.285 41.5561C226.285 41.4509 226.39 41.3457 226.495 41.2405C226.6 41.1353 226.705 41.1353 226.81 41.0301C226.915 41.0301 227.02 40.9249 227.125 40.9249L229.016 41.0301Z" fill="#414141"/>
<path d="M231.116 40.3991C231.116 40.2939 231.116 40.2939 231.116 40.1887C231.116 40.1887 231.116 40.1887 231.116 40.0835C231.116 39.5574 231.221 39.1366 231.326 38.7158C231.431 38.295 231.641 37.9794 231.956 37.6638C232.271 37.3481 232.586 37.1377 232.901 36.9273C233.321 36.7169 233.741 36.7169 234.161 36.7169C234.582 36.7169 235.002 36.8221 235.422 36.9273C235.842 37.1377 236.157 37.3481 236.472 37.6638C236.787 37.9794 236.997 38.295 237.207 38.7158C237.417 39.1366 237.417 39.5574 237.417 39.9783C237.417 40.2939 237.312 40.6095 237.207 40.9251C237.102 41.2407 236.997 41.4511 236.787 41.7667C236.577 41.9771 236.367 42.1876 236.157 42.398C235.947 42.6084 235.632 42.7136 235.317 42.8188L236.682 44.1864C236.787 44.2916 236.787 44.3968 236.892 44.5021C236.892 44.6073 236.997 44.7125 236.997 44.8177C236.997 44.9229 236.997 45.0281 236.892 45.1333C236.892 45.2385 236.787 45.3437 236.682 45.4489C236.577 45.5541 236.472 45.5541 236.367 45.6593C236.262 45.7645 236.157 45.7645 236.052 45.7645C235.947 45.7645 235.842 45.7645 235.737 45.6593C235.632 45.6593 235.527 45.5541 235.422 45.4489L233.111 43.1344V44.8177C233.111 44.9229 233.111 45.0281 233.006 45.2385C233.006 45.3437 232.901 45.4489 232.796 45.5541C232.691 45.6593 232.586 45.6593 232.481 45.7645C232.376 45.7645 232.271 45.8697 232.166 45.8697C232.061 45.8697 231.956 45.8697 231.851 45.7645C231.746 45.6593 231.641 45.6593 231.536 45.5541C231.431 45.4489 231.431 45.3437 231.326 45.2385C231.326 45.1333 231.221 45.0281 231.221 44.8177V40.3991H231.116ZM234.267 41.3459C234.477 41.3459 234.582 41.3459 234.792 41.2407C235.002 41.1355 235.107 41.0303 235.212 40.9251C235.317 40.8199 235.422 40.7147 235.527 40.5043C235.632 40.2939 235.632 40.1887 235.632 39.9783C235.632 39.7679 235.632 39.6626 235.527 39.4522C235.422 39.2418 235.317 39.1366 235.212 39.0314C235.107 38.9262 235.002 38.821 234.792 38.821C234.582 38.7158 234.477 38.7158 234.267 38.7158C234.056 38.7158 233.951 38.7158 233.741 38.821C233.636 38.9262 233.426 38.9262 233.321 39.1366C233.216 39.2418 233.111 39.347 233.006 39.5574C232.901 39.7679 232.901 39.8731 232.901 40.0835C232.901 40.2939 232.901 40.3991 233.006 40.6095C233.111 40.7147 233.111 40.9251 233.321 41.0303C233.426 41.1355 233.531 41.2407 233.741 41.3459C233.951 41.3459 234.161 41.3459 234.267 41.3459Z" fill="#414141"/>
<path d="M242.458 45.8697C241.828 45.8697 241.303 45.7645 240.673 45.5541C240.148 45.3436 239.623 45.028 239.203 44.6072C238.783 44.1864 238.467 43.7656 238.257 43.1344C238.047 42.6083 237.942 41.9771 237.942 41.3459C237.942 40.7146 238.047 40.1886 238.257 39.5574C238.467 39.0314 238.783 38.5054 239.203 38.0845C239.623 37.6637 240.043 37.3481 240.673 37.1377C241.198 36.9273 241.828 36.8221 242.458 36.8221C242.878 36.8221 243.298 36.9273 243.613 37.0325C243.928 37.1377 244.349 37.2429 244.664 37.4533C244.979 37.6637 245.294 37.8741 245.609 38.1897C245.924 38.5054 246.134 38.821 246.344 39.1366C246.554 39.4522 246.659 39.873 246.764 40.1886C246.869 40.6094 246.974 40.9251 246.974 41.3459C246.974 41.9771 246.869 42.5031 246.659 43.1344C246.449 43.6604 246.134 44.1864 245.714 44.6072C245.294 45.028 244.874 45.3436 244.243 45.5541C243.613 45.7645 243.088 45.8697 242.458 45.8697ZM242.458 44.0812C242.878 44.0812 243.193 43.976 243.508 43.8708C243.823 43.7656 244.138 43.5552 244.348 43.3448C244.559 43.1343 244.769 42.8187 244.979 42.5031C245.084 42.1875 245.189 41.7667 245.189 41.4511C245.189 41.0303 245.084 40.7146 244.979 40.399C244.874 40.0834 244.664 39.7678 244.348 39.5574C244.138 39.347 243.823 39.1366 243.508 38.9262C243.193 38.821 242.878 38.7158 242.458 38.7158C242.038 38.7158 241.723 38.821 241.408 38.9262C241.093 39.0314 240.778 39.2418 240.568 39.5574C240.358 39.7678 240.148 40.0834 240.043 40.399C239.938 40.7146 239.833 41.0303 239.833 41.4511C239.833 41.8719 239.938 42.1875 240.043 42.5031C240.148 42.8187 240.358 43.1343 240.568 43.3448C240.778 43.5552 241.093 43.7656 241.408 43.8708C241.723 43.976 242.038 44.0812 242.458 44.0812Z" fill="#414141"/>
<path d="M247.814 37.7689C247.814 37.6637 247.814 37.5585 247.919 37.4533C247.919 37.3481 248.024 37.2429 248.129 37.1377C248.234 37.0325 248.339 37.0325 248.444 36.9273C248.549 36.9273 248.654 36.8221 248.759 36.8221C248.864 36.8221 248.969 36.8221 249.074 36.9273C249.179 36.9273 249.284 37.0325 249.389 37.1377C249.494 37.2429 249.494 37.3481 249.599 37.4533C249.599 37.5585 249.704 37.6637 249.704 37.7689V42.1875C249.704 42.8187 249.809 43.2396 250.124 43.5552C250.334 43.8708 250.754 43.976 251.175 43.976C251.7 43.976 252.015 43.8708 252.225 43.5552C252.435 43.2396 252.54 42.8187 252.54 42.1875V37.7689C252.54 37.6637 252.54 37.5585 252.645 37.4533C252.645 37.3481 252.75 37.2429 252.855 37.1377C252.96 37.0325 253.065 37.0325 253.17 36.9273C253.275 36.9273 253.38 36.8221 253.485 36.8221C253.59 36.8221 253.695 36.8221 253.8 36.9273C253.905 36.9273 254.01 37.0325 254.115 37.1377C254.22 37.2429 254.22 37.3481 254.325 37.4533C254.325 37.5585 254.43 37.6637 254.43 37.7689V42.1875C254.43 42.7135 254.325 43.2396 254.22 43.6604C254.115 44.0812 253.8 44.502 253.59 44.8176C253.275 45.1332 252.96 45.3436 252.54 45.5541C252.12 45.7645 251.7 45.7645 251.175 45.7645C250.649 45.7645 250.229 45.6593 249.809 45.4488C249.389 45.2384 249.074 45.028 248.759 44.7124C248.444 44.3968 248.234 43.976 248.129 43.5552C248.024 43.1344 247.919 42.6083 247.919 42.1875V37.7689H247.814Z" fill="#414141"/>
<path d="M255.69 40.2938C255.69 39.7678 255.795 39.347 255.901 38.9262C256.111 38.5054 256.321 38.1897 256.531 37.8741C256.846 37.5585 257.161 37.3481 257.581 37.1377C258.001 36.9273 258.421 36.8221 258.841 36.8221C259.261 36.8221 259.786 36.9273 260.206 37.1377C260.626 37.3481 260.941 37.5585 261.256 37.8741C261.571 38.1897 261.782 38.5054 261.992 38.9262C262.202 39.347 262.307 39.7678 262.307 40.2938C262.307 40.7146 262.202 41.2407 261.992 41.6615C261.782 42.0823 261.571 42.3979 261.256 42.7135C260.941 43.0291 260.626 43.2396 260.206 43.45C259.786 43.6604 259.366 43.7656 258.841 43.7656C258.526 43.7656 258.316 43.7656 258.106 43.6604C257.896 43.5552 257.686 43.45 257.476 43.3448V44.9228C257.476 45.028 257.476 45.1332 257.371 45.3436C257.371 45.4488 257.266 45.5541 257.161 45.6593C257.056 45.7645 256.951 45.7645 256.846 45.8697C256.741 45.8697 256.636 45.9749 256.531 45.9749C256.426 45.9749 256.321 45.9749 256.216 45.8697C256.111 45.8697 256.006 45.7645 255.901 45.6593C255.795 45.5541 255.795 45.4488 255.69 45.3436C255.69 45.2384 255.585 45.1332 255.585 44.9228V40.2938H255.69ZM258.946 41.8719C259.156 41.8719 259.366 41.8719 259.576 41.7667C259.786 41.6615 259.891 41.5563 260.101 41.4511C260.206 41.3459 260.311 41.1355 260.416 40.9251C260.521 40.7146 260.521 40.5042 260.521 40.2938C260.521 40.0834 260.521 39.873 260.416 39.6626C260.311 39.4522 260.206 39.2418 260.101 39.1366C259.996 39.0314 259.786 38.9262 259.576 38.821C259.366 38.7158 259.156 38.7158 258.946 38.7158C258.736 38.7158 258.526 38.7158 258.316 38.821C258.106 38.9262 258.001 39.0314 257.791 39.1366C257.686 39.2418 257.581 39.4522 257.476 39.6626C257.476 39.873 257.476 40.0834 257.476 40.2938C257.476 40.5042 257.476 40.7146 257.581 40.9251C257.686 41.1355 257.791 41.2407 257.896 41.4511C258.001 41.5563 258.211 41.6615 258.421 41.7667C258.526 41.8719 258.736 41.8719 258.946 41.8719Z" fill="#414141"/>
<path d="M42.0489 22.9972C42.0489 27.8124 41.113 31.8744 39.2414 35.1831C37.3697 38.4778 34.8437 40.9769 31.6633 42.6805C28.4829 44.3701 24.9366 45.2149 21.0244 45.2149C17.0841 45.2149 13.5237 44.363 10.3433 42.6594C7.17702 40.9417 4.65802 38.4355 2.78637 35.1409C0.92879 31.8322 0 27.7843 0 22.9972C0 18.182 0.92879 14.127 2.78637 10.8324C4.65802 7.52368 7.17702 5.02455 10.3433 3.33499C13.5237 1.63136 17.0841 0.779541 21.0244 0.779541C24.9366 0.779541 28.4829 1.63136 31.6633 3.33499C34.8437 5.02455 37.3697 7.52368 39.2414 10.8324C41.113 14.127 42.0489 18.182 42.0489 22.9972ZM29.9746 22.9972C29.9746 20.4066 29.6298 18.2242 28.9403 16.4502C28.2648 14.6621 27.2586 13.3104 25.9217 12.3952C24.5989 11.466 22.9664 11.0014 21.0244 11.0014C19.0824 11.0014 17.443 11.466 16.1061 12.3952C14.7832 13.3104 13.7771 14.6621 13.0875 16.4502C12.412 18.2242 12.0743 20.4066 12.0743 22.9972C12.0743 25.5879 12.412 27.7772 13.0875 29.5654C13.7771 31.3394 14.7832 32.691 16.1061 33.6203C17.443 34.5355 19.0824 34.993 21.0244 34.993C22.9664 34.993 24.5989 34.5355 25.9217 33.6203C27.2586 32.691 28.2648 31.3394 28.9403 29.5654C29.6298 27.7772 29.9746 25.5879 29.9746 22.9972Z" fill="#414141"/>
<path d="M47.4791 1.37089H62.0865L72.1343 25.8694H72.6409L82.6887 1.37089H97.296V44.6235H85.8128V19.6181H85.4751L75.8494 44.2856H68.9257L59.3001 19.4491H58.9623V44.6235H47.4791V1.37089Z" fill="#414141"/>
<path d="M126.162 14.8873C126.05 13.4794 125.522 12.3812 124.579 11.5927C123.65 10.8042 122.236 10.41 120.336 10.41C119.126 10.41 118.134 10.5578 117.36 10.8535C116.6 11.1351 116.037 11.5223 115.671 12.0151C115.305 12.5079 115.115 13.0711 115.101 13.7046C115.073 14.2256 115.165 14.6973 115.376 15.1196C115.601 15.528 115.953 15.9011 116.431 16.239C116.91 16.5628 117.522 16.8585 118.268 17.126C119.014 17.3935 119.9 17.6329 120.927 17.8441L124.474 18.6044C126.866 19.1112 128.914 19.78 130.616 20.6107C132.319 21.4414 133.712 22.4199 134.796 23.5463C135.88 24.6586 136.675 25.9117 137.181 27.3056C137.702 28.6995 137.969 30.2201 137.983 31.8674C137.969 34.7115 137.259 37.1191 135.851 39.0902C134.444 41.0614 132.432 42.5609 129.814 43.5887C127.211 44.6165 124.08 45.1304 120.421 45.1304C116.663 45.1304 113.385 44.5742 110.584 43.4619C107.798 42.3497 105.631 40.639 104.083 38.3299C102.549 36.0068 101.775 33.036 101.761 29.4175H112.906C112.976 30.741 113.307 31.8533 113.898 32.7544C114.489 33.6555 115.319 34.3383 116.389 34.803C117.473 35.2676 118.76 35.4999 120.252 35.4999C121.504 35.4999 122.553 35.345 123.397 35.0353C124.241 34.7255 124.882 34.2961 125.318 33.747C125.754 33.1979 125.979 32.5714 125.994 31.8674C125.979 31.2056 125.761 30.6284 125.339 30.1356C124.931 29.6287 124.256 29.1782 123.313 28.7839C122.37 28.3756 121.096 27.9955 119.492 27.6435L115.186 26.7142C111.358 25.8835 108.339 24.4967 106.13 22.5537C103.935 20.5966 102.844 17.9285 102.858 14.5494C102.844 11.8039 103.576 9.40332 105.054 7.34769C106.545 5.27798 108.607 3.66587 111.238 2.51134C113.884 1.35681 116.917 0.779541 120.336 0.779541C123.826 0.779541 126.845 1.36385 129.392 2.53246C131.939 3.70107 133.902 5.34838 135.281 7.47441C136.675 9.58635 137.378 12.0573 137.392 14.8873H126.162Z" fill="#414141"/>
</svg>
