<svg width="16" height="16" viewBox="0 0 16 16" fill="none" xmlns="http://www.w3.org/2000/svg">
<g clip-path="url(#clip0_5437_6288)">
<path d="M8.625 16H0.78125C0.57405 16 0.375336 15.9177 0.228823 15.7712C0.08231 15.6247 0 15.426 0 15.2188L0 0.78125C0 0.57405 0.08231 0.375336 0.228823 0.228823C0.375336 0.08231 0.57405 0 0.78125 0L8.625 0C8.8322 0 9.03091 0.08231 9.17743 0.228823C9.32394 0.375336 9.40625 0.57405 9.40625 0.78125C9.40625 0.98845 9.32394 1.18716 9.17743 1.33368C9.03091 1.48019 8.8322 1.5625 8.625 1.5625H1.5625V14.4375H8.625C8.8322 14.4375 9.03091 14.5198 9.17743 14.6663C9.32394 14.8128 9.40625 15.0115 9.40625 15.2188C9.40625 15.426 9.32394 15.6247 9.17743 15.7712C9.03091 15.9177 8.8322 16 8.625 16Z" fill="#414141"/>
<path d="M15.0147 8.78125H5.84375C5.63655 8.78125 5.43784 8.69894 5.29132 8.55243C5.14481 8.40591 5.0625 8.2072 5.0625 8C5.0625 7.7928 5.14481 7.59409 5.29132 7.44757C5.43784 7.30106 5.63655 7.21875 5.84375 7.21875H15.0147C15.2219 7.21875 15.4206 7.30106 15.5671 7.44757C15.7136 7.59409 15.7959 7.7928 15.7959 8C15.7959 8.2072 15.7136 8.40591 15.5671 8.55243C15.4206 8.69894 15.2219 8.78125 15.0147 8.78125Z" fill="#414141"/>
<path d="M11.2525 12.735C11.0979 12.735 10.9467 12.6892 10.8181 12.6032C10.6896 12.5172 10.5894 12.3951 10.5304 12.2521C10.4713 12.1092 10.456 11.952 10.4863 11.8003C10.5167 11.6487 10.5914 11.5095 10.701 11.4003L14.1122 8L10.701 4.59969C10.6262 4.52774 10.5666 4.44164 10.5255 4.34639C10.4844 4.25115 10.4627 4.14867 10.4616 4.04495C10.4605 3.94122 10.4801 3.83832 10.5192 3.74225C10.5583 3.64617 10.6162 3.55885 10.6894 3.48538C10.7627 3.4119 10.8498 3.35375 10.9457 3.3143C11.0417 3.27486 11.1445 3.25491 11.2482 3.25563C11.352 3.25636 11.4545 3.27773 11.5499 3.3185C11.6453 3.35928 11.7316 3.41864 11.8038 3.49312L15.7706 7.44656C15.8435 7.51914 15.9013 7.6054 15.9407 7.70037C15.9802 7.79534 16.0005 7.89716 16.0005 8C16.0005 8.10284 15.9802 8.20466 15.9407 8.29963C15.9013 8.3946 15.8435 8.48085 15.7706 8.55344L11.8038 12.5069C11.7314 12.5793 11.6455 12.6367 11.5509 12.6758C11.4563 12.715 11.3549 12.7351 11.2525 12.735Z" fill="#414141"/>
</g>
<defs>
<clipPath id="clip0_5437_6288">
<rect width="16" height="16" fill="white"/>
</clipPath>
</defs>
</svg>
