<svg width="16" height="16" viewBox="0 0 16 16" fill="none" xmlns="http://www.w3.org/2000/svg">
<g clip-path="url(#clip0_5437_6291)">
<path d="M8.21877 14.75H1.92787C1.66103 14.75 1.50014 14.6011 1.42787 14.5123C1.30324 14.359 1.25502 14.1595 1.29555 13.9648C1.9446 10.8472 4.69594 8.57056 7.87221 8.4967C7.92494 8.49866 7.97792 8.5 8.03127 8.5C10.3747 8.5 12.2813 6.59351 12.2813 4.25C12.2813 1.90649 10.3747 0 8.03127 0C5.68776 0 3.78127 1.90649 3.78127 4.25C3.78127 5.64087 4.4529 6.87793 5.48891 7.65369C4.53981 7.96606 3.64906 8.45203 2.86964 9.09314C1.44057 10.2687 0.446915 11.9083 0.0717925 13.7101C-0.0457612 14.2747 0.095108 14.8545 0.458145 15.301C0.819351 15.7452 1.35512 16 1.92787 16H8.21877C8.56386 16 8.84377 15.7202 8.84377 15.375C8.84377 15.0298 8.56386 14.75 8.21877 14.75ZM5.03127 4.25C5.03127 2.59583 6.37697 1.25 8.03127 1.25C9.68544 1.25 11.0313 2.59583 11.0313 4.25C11.0313 5.88049 9.72377 7.2113 8.10219 7.24915C8.07887 7.24646 8.05531 7.24475 8.03127 7.24475C7.98244 7.24475 7.93373 7.24548 7.88503 7.24634C6.29848 7.16992 5.03127 5.85522 5.03127 4.25ZM16.0313 12.8744C16.0313 13.2196 15.7514 13.4994 15.4063 13.4994H10.7188C10.3736 13.4994 10.0938 13.2196 10.0938 12.8744C10.0938 12.5293 10.3736 12.2494 10.7188 12.2494H15.4063C15.7514 12.2494 16.0313 12.5293 16.0313 12.8744ZM10.7188 9.75H15.4063C15.7514 9.75 16.0313 10.0298 16.0313 10.375C16.0313 10.7202 15.7514 11 15.4063 11H10.7188C10.3736 11 10.0938 10.7202 10.0938 10.375C10.0938 10.0298 10.3736 9.75 10.7188 9.75ZM16.0313 15.375C16.0313 15.7202 15.7514 16 15.4063 16H10.7188C10.3736 16 10.0938 15.7202 10.0938 15.375C10.0938 15.0298 10.3736 14.75 10.7188 14.75H15.4063C15.7514 14.75 16.0313 15.0298 16.0313 15.375Z" fill="#414141"/>
</g>
<defs>
<clipPath id="clip0_5437_6291">
<rect width="16" height="16" fill="white"/>
</clipPath>
</defs>
</svg>
